<?xml version="1.0" encoding="UTF-8" standalone="no"?>
<!-- Created with Inkscape (http://www.inkscape.org/) -->

<svg
   version="1.1"
   id="svg1"
   width="576.94659"
   height="575.10065"
   viewBox="0 0 576.94659 575.10065"
   sodipodi:docname="Steinbart-Gymnasium_Logo.svg"
   inkscape:version="1.3.1 (91b66b0783, 2023-11-16)"
   xmlns:inkscape="http://www.inkscape.org/namespaces/inkscape"
   xmlns:sodipodi="http://sodipodi.sourceforge.net/DTD/sodipodi-0.dtd"
   xmlns="http://www.w3.org/2000/svg"
   xmlns:svg="http://www.w3.org/2000/svg">
  <defs
     id="defs1" />
  <sodipodi:namedview
     id="namedview1"
     pagecolor="#ffffff"
     bordercolor="#000000"
     borderopacity="0.25"
     inkscape:showpageshadow="2"
     inkscape:pageopacity="0.0"
     inkscape:pagecheckerboard="0"
     inkscape:deskcolor="#d1d1d1"
     inkscape:zoom="0.98269712"
     inkscape:cx="288.49174"
     inkscape:cy="296.6326"
     inkscape:window-width="1920"
     inkscape:window-height="1009"
     inkscape:window-x="1912"
     inkscape:window-y="-8"
     inkscape:window-maximized="1"
     inkscape:current-layer="g1" />
  <g
     inkscape:groupmode="layer"
     inkscape:label="Image"
     id="g1"
     transform="translate(-8.7253517,15.230233)">
    <g
       id="g2"
       transform="translate(-500.66291,-211.66237)">
      <path
         style="fill:#ffffff"
         d="M 775.25751,770.83601 C 746.0263,768.86081 720.08405,762.68054 685.85064,749.53643 602.26623,717.44372 533.49479,633.16659 514.42756,539.4631 c -2.50544,-12.31267 -2.87836,-14.77038 -4.70375,-31 -0.43294,-3.84929 -0.45311,-40.04357 -0.0245,-44 0.17874,-1.65 0.6248,-6.15 0.99125,-10 5.49402,-57.72188 32.66604,-118.48923 72.60236,-162.36751 45.86228,-50.38916 106.16504,-82.54621 175.45802,-93.56475 17.41992,-2.77001 70.18217,-2.80652 85,-0.0588 33.45206,6.20308 32.24766,5.89345 57.87277,14.8784 93.12251,32.65162 168.04429,124.52201 181.18399,222.17094 0.3657,2.71795 0.8208,5.76342 1.0113,6.7677 0.3584,1.88952 1.112,9.13095 1.9435,18.67404 1.291,14.81804 0.3001,45.1807 -1.9907,61 -3.9022,26.94597 -13.6949,59.30216 -24.8845,82.22119 -54.1356,110.88342 -162.93013,174.80757 -283.62977,166.65172 z m 46.81865,-26.88624 c 18.47696,-2.18742 30.37617,-4.52009 45.81699,-8.98173 45.07418,-13.02425 90.54643,-40.86911 119.44909,-73.14447 9.21398,-10.28918 23.51946,-28.20707 25.35656,-31.75958 0.8453,-1.63468 4.1903,-7.18385 7.4333,-12.33148 15.2844,-24.26076 29.3339,-61.8041 33.5934,-89.76941 0.377,-2.475 0.858,-5.625 1.0689,-7 1.9759,-12.88178 2.5756,-21.45821 2.5873,-37 0.012,-15.39142 -0.5879,-23.96454 -2.5873,-37 -0.2109,-1.375 -0.6849,-4.525 -1.0534,-7 -1.1558,-7.76352 -6.3075,-27.31872 -10.0436,-38.12437 -1.9731,-5.7066 -4.2235,-12.40063 -5.0008,-14.87563 -1.9725,-6.27999 -13.9615,-29.92622 -19.9537,-39.35504 -10.4246,-16.40351 -12.3635,-19.06012 -23.52637,-32.23504 -21.8752,-25.81822 -51.75014,-48.86475 -83.50888,-64.42155 -22.33364,-10.93998 -55.88803,-21.04954 -77.95673,-23.48749 -3.3,-0.36455 -7.35,-0.86349 -9,-1.10874 -12.66886,-1.88309 -42.87994,-1.30212 -59.5,1.14421 -14.00522,2.06145 -19.00916,3.04638 -30.5,6.00337 -107.54564,27.67519 -183.96857,114.65561 -197.21581,224.46028 -1.00862,8.36029 -1.01903,48.66905 -0.0146,56.5 3.00922,23.46105 7.68612,41.68408 17.6751,68.86904 14.88087,40.49824 56.24462,91.54483 94.05531,116.07275 5.775,3.74626 11.625,7.57646 13,8.51154 24.09975,16.38941 69.67664,31.51778 109.5,36.34641 6.40448,0.77655 43.04676,0.5486 50.32524,-0.31307 z m -32.02359,-37.49665 c -0.16591,-0.15396 -2.3911,-0.55832 -4.94487,-0.89858 -51.25351,-6.82882 -98.1514,-52.06443 -106.36139,-102.59144 -0.40215,-2.475 -0.91344,-5.4 -1.13619,-6.5 -0.84088,-4.15241 -0.40217,-30.22673 0.59728,-35.5 1.91488,-10.10313 7.43548,-12.36901 14.90474,-6.11751 2.55133,2.13537 8.74736,6.60267 13.76895,9.92735 11.671,7.72708 15.07684,12.3289 15.48237,20.91914 3.52711,74.7131 105.7896,103.35035 147.80095,41.38968 14.92434,-22.01123 19.18187,-53.18061 8.07599,-59.12429 -1.41279,-0.7561 -4.67448,0.0608 -13.67245,3.42422 -11.74455,4.39011 -23.7087,7.76356 -32.31703,9.11221 -2.475,0.38775 -5.4,0.92932 -6.5,1.2035 -10.21322,2.54562 -44.42838,0.45963 -60.52704,-3.69014 -63.94701,-16.4837 -114.16546,-70.88805 -122.55823,-132.77393 -0.35236,-2.59818 -0.80211,-5.85937 -0.99946,-7.2471 -0.52769,-3.71069 -0.52397,-34.10474 0.005,-37.02313 0.249,-1.375 0.68749,-4.075 0.97443,-6 10.45145,-70.11699 72.64579,-131.30156 139.78119,-137.51173 3.47852,-0.32177 7.44958,-0.82735 8.82458,-1.12351 15.76161,-3.39492 26.54666,1.52293 25.71304,11.72484 -0.87424,10.69895 -4.31886,13.34086 -18.66854,14.31818 -43.02734,2.93047 -83.26936,24.86682 -104.7351,57.09222 -2.56453,3.85 -5.42982,8.14699 -6.36732,9.54886 -16.59671,24.81769 -23.5963,67.12453 -16.3713,98.95114 23.2847,102.57064 144.8743,142.14495 225.35378,73.3469 14.04813,-12.00906 24.9568,0.14071 32.01114,35.6531 0.6009,3.025 1.32255,6.625 1.60367,8 10.77525,52.70283 -31.65579,118.33123 -88.03937,136.17116 -13.20193,4.17713 -48.964,7.85643 -51.69835,5.31886 z m 1.64529,-166.51923 C 665.6447,524.23609 642.2114,353.95404 759.53048,306.18411 c 85.35617,-34.75528 183.31549,42.01095 166.18174,130.22901 -6.94403,35.75333 -21.86965,60.75466 -47.9613,80.33811 -8.65227,6.49409 -31.09468,17.7018 -38.5,19.22686 -3.025,0.62297 -8.425,1.76917 -12,2.54712 -8.34913,1.81684 -26.50044,2.53603 -35.55306,1.40868 z m 25.54704,-40.03947 c 18.47108,-2.99673 21.20307,-8.25437 11.90181,-22.90471 -8.73706,-13.76168 -8.03179,-17.14471 5.34166,-25.62267 15.74181,-9.97936 18.67896,-9.85044 26.25697,1.15249 8.77588,12.74217 14.59255,11.0964 20.2807,-5.73825 26.32698,-77.91734 -62.77948,-141.72611 -127.25147,-91.12426 -64.31918,50.48192 -17.29685,157.34096 63.47033,144.2374 z"
         id="path1" />
    </g>
  </g>
</svg>
